<?xml version="1.0" standalone="no"?>
<!DOCTYPE svg PUBLIC "-//W3C//DTD SVG 20010904//EN"
 "http://www.w3.org/TR/2001/REC-SVG-20010904/DTD/svg10.dtd">
<svg version="1.0" xmlns="http://www.w3.org/2000/svg"
 width="1024.000000pt" height="1024.000000pt" viewBox="0 0 1024.000000 1024.000000"
 preserveAspectRatio="xMidYMid meet">

<g transform="translate(0.000000,1024.000000) scale(0.100000,-0.100000)"
fill="currentColor" stroke="none">
<path d="M3675 7779 c-1064 -98 -1951 -793 -2302 -1804 -40 -117 -91 -332
-114 -485 -31 -206 -31 -534 0 -740 23 -153 74 -368 114 -485 149 -428 413
-831 732 -1117 452 -405 975 -631 1590 -688 468 -43 1008 69 1447 299 l77 41
151 -74 c639 -313 1367 -361 2035 -133 143 49 193 70 334 141 691 345 1196
971 1392 1725 57 219 71 334 76 606 4 196 1 277 -11 375 -43 324 -115 566
-256 856 -316 646 -890 1144 -1572 1362 -141 45 -359 95 -488 112 -139 18
-414 24 -550 11 -343 -31 -658 -119 -959 -266 l-150 -74 -138 69 c-425 212
-947 312 -1408 269z m3135 -44 c696 -68 1356 -427 1793 -977 252 -317 436
-710 517 -1103 71 -344 71 -727 0 -1071 -81 -394 -268 -789 -527 -1114 -91
-115 -287 -311 -403 -402 -380 -301 -807 -484 -1295 -554 -149 -22 -515 -25
-655 -6 -299 41 -582 123 -827 242 -79 38 -143 71 -143 74 0 3 37 30 83 59
492 320 876 814 1074 1382 40 116 91 332 114 485 29 190 31 524 5 705 -49 342
-131 602 -280 890 -206 399 -511 742 -883 992 -62 41 -113 77 -113 80 0 2 64
35 143 73 441 211 907 293 1397 245z"/>
</g>
</svg>
